<?xml version="1.0" standalone="no"?><!DOCTYPE svg PUBLIC "-//W3C//DTD SVG 1.1//EN" "http://www.w3.org/Graphics/SVG/1.1/DTD/svg11.dtd"><svg t="1683389446093" class="icon" viewBox="0 0 1024 1024" version="1.1" xmlns="http://www.w3.org/2000/svg" p-id="3325" xmlns:xlink="http://www.w3.org/1999/xlink" width="200" height="200"><path d="M876.959 512c0 55.731 34.356 103.43 83.041 123.095a461.646 461.646 0 0 1-44.21 106.634c-48.323-20.501-106.327-11.061-145.725 28.337s-48.838 97.402-28.337 145.725a461.671 461.671 0 0 1-106.634 44.21C615.43 911.315 567.731 876.959 512 876.959S408.57 911.315 388.905 960a461.628 461.628 0 0 1-106.634-44.21c20.501-48.324 11.061-106.327-28.337-145.725s-97.402-48.838-145.725-28.337a461.671 461.671 0 0 1-44.21-106.634c48.685-19.665 83.041-67.364 83.041-123.095S112.685 408.57 64 388.905a461.628 461.628 0 0 1 44.21-106.634c48.323 20.501 106.327 11.061 145.725-28.337s48.838-97.402 28.337-145.725a461.671 461.671 0 0 1 106.634-44.21c19.665 48.685 67.364 83.041 123.095 83.041S615.43 112.685 635.095 64a461.628 461.628 0 0 1 106.634 44.21c-20.501 48.323-11.061 106.327 28.337 145.725s97.402 48.838 145.725 28.337a461.671 461.671 0 0 1 44.21 106.634C911.315 408.57 876.959 456.269 876.959 512z" fill="#92C8FF" p-id="3326"></path><path d="M512 512m-256 0a256 256 0 1 0 512 0 256 256 0 1 0-512 0Z" fill="#409EFF" p-id="3327"></path><path d="M512 512m-96 0a96 96 0 1 0 192 0 96 96 0 1 0-192 0Z" fill="#92C8FF" p-id="3328"></path></svg>